PathFileType	4	(X/Y/Z)	D:\TRACE\spotREDO_2-26-24\spot_justBody_Motion_3_1-v60.trc
DataRate	CameraRate	NumFrames	NumMarkers	Units	OrigDataRate	OrigDataStartFrame	OrigNumFrames
100.00	100.00	      38	9	mm	100.00	1751	      7000
Frame#	Time	front left toe			Front right toe			aft left toe			aft right toe			Arm			FL body			FR body			AL Body			AR Body			
		X1	Y1	Z1	X2	Y2	Z2	X3	Y3	Z3	X4	Y4	Z4	X5	Y5	Z5	X6	Y6	Z6	X7	Y7	Z7	X8	Y8	Z8	X9	Y9	Z9	

1751	17.500	-251.18401	13.76154	-197.81927	274.74860	17.49479	-81.38559	-169.73036	31.44563	232.06769	213.03520	35.22214	307.87088	26.12956	810.15430	-306.84885	-48.37327	548.48175	-278.47507	107.18993	557.87708	-285.17865	-19.01964	566.90802	605.07477	121.77784	576.18890	600.89990	
1752	17.510	-250.81464	13.36363	-198.00139	274.99344	17.40580	-81.57683	-169.44595	31.73454	231.91542	213.98402	35.94931	307.87863	25.60456	809.92810	-306.80670	-48.84838	548.32813	-278.29120	106.82767	557.65570	-285.01978	-19.36115	566.99512	605.25873	121.17142	576.42285	601.36176	
1753	17.520	-250.55823	12.93344	-198.18463	275.48581	17.37740	-81.76585	-169.05956	31.84476	231.82826	213.70564	36.11149	307.59833	25.05911	809.74194	-306.78702	-49.37595	547.92920	-277.91168	106.31604	557.57379	-285.00360	-19.84866	567.13007	605.60913	120.73841	576.52899	601.61542	
1754	17.530	-250.25217	12.59279	-198.41225	276.20193	17.51412	-81.76329	-168.72847	32.15026	231.58138	214.01154	36.65614	307.41046	24.45962	809.43890	-306.48569	-49.74632	547.69604	-277.58105	105.40920	557.12073	-284.40067	-20.31820	567.30841	605.88104	120.29752	576.65216	601.76019	
1755	17.540	-249.79536	12.26780	-198.50392	276.25308	17.37106	-82.15222	-168.10072	32.63384	231.29559	214.17955	37.00195	307.25513	23.96843	809.20013	-306.17105	-50.55344	547.64990	-277.29382	105.10811	556.89752	-284.14032	-21.08058	567.93152	606.02582	119.88877	576.84534	601.98022	
1756	17.550	-248.87854	11.88393	-198.87764	276.81760	17.36791	-82.22163	-167.43695	32.66964	231.31644	214.77565	37.74855	307.00436	23.70567	808.99677	-305.87234	-50.95339	547.56415	-277.08249	104.76637	556.80481	-283.86841	-21.37749	567.79828	606.48828	119.41501	577.06042	602.33270	
1757	17.560	-248.59567	11.64658	-199.09431	277.24347	17.31123	-82.40235	-167.25395	32.96369	231.04251	215.35962	38.29532	306.71021	23.36305	808.93213	-305.75677	-51.36838	547.38617	-276.88965	104.06130	556.58649	-283.56534	-21.71605	568.00500	606.76184	118.86132	577.22833	602.69696	
1758	17.570	-248.43648	11.41545	-199.24541	277.49002	17.09004	-82.67098	-167.11073	33.47753	230.61859	215.51088	38.66396	306.25989	22.89380	808.71185	-305.76047	-52.09035	547.15735	-276.46259	103.55710	556.30157	-283.17368	-22.15597	568.23529	607.02496	118.25169	577.49091	602.90930	
1759	17.580	-248.01524	11.06466	-199.42917	277.93076	16.89005	-82.98576	-166.52351	33.50219	230.46584	216.03973	39.26855	306.33435	22.64089	808.48901	-305.64676	-52.58635	546.84930	-276.22672	103.14713	555.97040	-282.92834	-22.63305	568.49231	607.30121	117.90041	577.64648	602.96954	
1760	17.590	-247.36551	10.51711	-199.56534	278.43893	16.96694	-83.04659	-165.63402	33.52342	230.45847	216.60048	39.71276	306.09314	21.98607	808.12128	-305.52039	-52.88161	546.60187	-276.02332	102.65729	555.67126	-282.76111	-23.16252	568.88806	607.56140	117.45540	577.86914	603.14124	
1761	17.600	-247.01900	10.33606	-199.65570	279.13693	16.79984	-83.29664	-165.35497	34.04026	230.11774	217.28593	40.22213	305.93906	21.65545	807.80011	-305.29947	-53.51859	546.48199	-275.73837	102.08245	555.62140	-282.74698	-23.56583	569.26221	607.82758	117.51738	577.93811	603.40112	
1762	17.610	-246.64250	9.92062	-199.71178	279.64587	16.68582	-83.56850	-164.94374	34.39521	229.93004	217.65984	40.71885	305.74469	21.34671	807.49554	-305.16153	-54.14838	546.39038	-275.41663	101.50756	555.01996	-282.11765	-23.89770	569.63916	608.11566	115.74734	578.53308	603.81934	
1763	17.620	-246.18217	9.44117	-199.94235	280.32739	16.67492	-83.70867	-164.34511	34.70005	230.00041	218.07602	41.18356	305.43073	20.98704	807.17560	-305.21536	-54.50045	545.99597	-274.96072	100.97304	554.72235	-281.81549	-24.10972	569.86591	608.50146	116.00343	578.66876	604.22974	
1764	17.630	-245.67416	9.09679	-200.11581	280.28964	16.46382	-84.05170	-163.69302	34.80618	229.76959	218.71582	41.63966	305.19064	20.86049	806.85651	-305.02930	-54.90730	545.72815	-274.70187	100.70855	554.34686	-281.57382	-24.80380	570.08807	608.76556	115.75665	578.85248	604.35681	
1765	17.640	-245.21150	8.72435	-200.27411	281.26160	16.67458	-84.16419	-163.28070	34.90301	229.53506	219.24637	42.08392	304.76572	20.65887	806.59570	-304.96619	-55.37876	545.57654	-274.45581	100.24432	554.04102	-281.46243	-25.75653	570.97845	608.82477	115.29363	579.06207	604.56067	
1766	17.650	-244.78099	8.53878	-200.39485	281.69193	16.44053	-84.87720	-162.61584	35.04930	229.26848	219.64023	42.70628	304.57492	20.38170	806.22528	-304.82455	-55.79270	545.45520	-274.16617	99.59075	553.77924	-281.09128	-25.84652	570.79724	609.19830	113.89664	579.44135	604.89014	
1767	17.660	-243.86392	8.02885	-200.57892	282.00070	16.45089	-84.70354	-162.18660	35.50797	228.99287	220.29298	43.25609	304.48444	20.07916	806.03314	-304.71915	-56.47554	545.25165	-274.07236	99.04985	553.32117	-280.61334	-26.18643	571.09198	609.32239	114.54365	579.50726	605.18512	
1768	17.670	-243.32915	7.82713	-200.70169	282.82693	16.27899	-84.80273	-161.31041	35.63736	228.93625	221.12988	43.84251	304.28580	19.76538	805.55750	-304.69662	-57.01560	544.77686	-273.64172	98.62254	552.95453	-280.55750	-26.14723	571.27844	609.46698	114.17863	579.86749	605.54761	
1769	17.680	-242.75447	7.32727	-200.65068	283.79315	16.34040	-84.78459	-160.75575	36.01115	228.69214	221.72374	44.13415	304.02887	19.35186	805.25006	-304.70895	-57.64769	544.69324	-273.85583	98.14825	552.56488	-280.47766	-27.20475	572.55469	609.76526	113.77351	580.33478	605.73407	
1770	17.690	-242.26225	6.84753	-200.88324	284.10004	16.14907	-85.04786	-160.30060	36.29353	228.37234	222.09396	44.44269	303.71652	19.00442	804.90765	-304.62717	-57.70232	544.22485	-273.11877	97.65051	552.14386	-280.20950	-27.38097	572.51050	610.13733	113.42866	580.64160	605.89130	
1771	17.700	-241.63860	6.50509	-201.13840	284.73962	16.08117	-85.40396	-159.46852	36.28354	228.37872	222.94539	44.91689	303.47311	18.70915	804.61163	-304.64264	-58.35423	544.13123	-272.77933	97.31448	551.71606	-279.69064	-27.82974	573.04688	610.33282	112.99126	580.95068	606.03711	
1772	17.710	-240.87271	6.09943	-201.42067	285.69556	16.17096	-85.34192	-158.54813	36.50813	228.14478	223.80112	45.68015	303.34079	18.45299	804.32019	-304.70673	-58.83783	543.63074	-272.44147	96.89410	551.30829	-279.52048	-27.99629	573.42767	610.57410	112.64076	581.19666	606.17621	
1773	17.720	-240.08382	5.81268	-201.63177	286.22437	16.15752	-85.55103	-158.37057	36.92146	227.96361	224.35866	46.30260	303.08072	18.31509	803.90942	-304.66360	-59.14569	543.44366	-272.34650	96.21403	551.02625	-279.61673	-28.77812	574.45557	610.42737	111.97096	581.70233	606.27222	
1774	17.730	-239.50948	5.48948	-201.58604	286.85709	16.15928	-85.90056	-157.58495	37.11267	227.74530	224.85135	46.69582	302.79514	18.25004	803.46545	-304.56689	-59.95808	543.53406	-272.71085	95.99918	550.78522	-279.27444	-29.39595	574.81110	610.55389	111.59684	582.03656	606.47876	
1775	17.740	-238.88383	5.01467	-201.62062	287.74695	16.24228	-86.08202	-156.49174	37.16671	227.60573	225.99904	47.09685	302.72012	18.04059	803.12189	-304.59311	-60.05804	543.11548	-272.02682	95.60296	550.30176	-279.13776	-29.66300	575.14764	610.78735	111.30611	582.21729	606.66040	
1776	17.750	-238.17285	4.59110	-201.82294	288.29648	16.14538	-86.25173	-156.11110	37.39793	227.28757	226.45059	47.35384	302.53943	17.81860	802.82660	-304.59943	-60.48668	542.82629	-271.90656	95.22864	549.93542	-278.86902	-29.60195	574.92810	611.26318	110.98469	582.40240	606.81128	
1777	17.760	-237.31160	4.23283	-201.88171	288.92264	15.92406	-86.48394	-155.55429	37.83078	227.02901	227.19287	47.87542	302.09415	17.54214	802.60175	-304.69641	-60.89983	542.51239	-271.66599	94.52905	549.68359	-278.81772	-30.41771	576.08081	611.25555	109.65176	582.93665	606.82532	
1778	17.770	-236.52020	3.78418	-201.84511	290.13535	15.95063	-86.49101	-154.57422	37.86440	226.92831	228.04404	48.46828	301.97922	17.32542	802.38269	-304.73590	-61.27560	542.24896	-271.52551	94.07665	549.25897	-278.70502	-30.66795	576.35681	611.33234	110.22888	583.03845	606.89209	
1779	17.780	-235.76126	3.43151	-201.96608	290.60437	15.93525	-86.81136	-153.81105	38.06788	226.91310	228.98131	49.02823	301.88300	17.02856	802.14825	-304.83554	-61.77698	542.09918	-271.51712	93.88531	549.02148	-278.55444	-30.90314	576.75604	611.47076	110.00157	583.32227	607.03613	
1780	17.790	-234.99196	3.08916	-202.13429	291.43597	16.06169	-86.80350	-153.19469	38.32914	226.62921	229.51096	49.31838	301.66425	16.73305	801.78174	-305.02573	-62.38762	542.28143	-272.02710	93.67148	548.59534	-278.44058	-31.47796	577.19531	611.41193	109.53082	583.64545	607.01801	
1781	17.800	-234.01674	2.58413	-202.24641	292.21594	16.07655	-86.97293	-152.68356	38.47443	226.41441	230.45168	49.75064	301.48825	16.46905	801.39343	-305.19858	-62.16050	541.65063	-271.38113	93.40297	548.28931	-278.40677	-31.68042	577.41943	611.37463	109.71490	583.53986	607.07043	
1782	17.810	-233.47696	2.52224	-202.39560	293.03125	16.04992	-87.04282	-151.68736	38.50032	226.35266	231.11497	50.21318	301.28009	16.28146	801.16302	-305.38525	-62.45020	541.25397	-271.32477	92.98345	547.95972	-278.46155	-31.85902	577.67175	611.29871	109.51070	583.81995	607.10504	
1783	17.820	-232.58315	2.15307	-202.49057	293.88690	16.79779	-87.65029	-150.86380	38.64378	226.14279	232.03145	50.45627	301.21039	16.34579	800.83209	-305.42227	-62.89209	541.13043	-271.52246	92.59023	547.55603	-278.60577	-32.05088	578.01630	611.24121	109.31243	584.34729	607.07043	
1784	17.830	-231.56491	1.64751	-202.83563	291.76541	23.77390	-85.64705	-150.52570	39.35532	226.19946	233.14729	50.85703	300.72403	16.79802	800.35474	-305.65918	-63.37526	540.90295	-271.76285	92.32983	547.12994	-278.72131	-32.04559	578.25787	611.02118	109.11248	584.63776	606.92133	
1785	17.840	-230.88580	1.29214	-202.90244	289.56198	35.58906	-82.12969	-149.67198	39.89801	225.74579	233.94589	51.18720	300.59326	17.01515	800.00806	-306.07877	-63.61152	540.50208	-271.73154	91.95879	546.33606	-278.95575	-31.82744	578.53998	610.61285	109.37415	584.79968	606.64215	
1786	17.850	-230.07968	0.88675	-202.68999	290.60861	48.15650	-79.59586	-148.87943	40.11454	225.66245	234.65298	51.55806	300.38974	17.23065	799.21100	-306.75583	-63.82388	540.16504	-271.89160	91.78412	545.44836	-279.15768	-31.86796	579.13055	610.49402	109.35382	585.03528	606.34717	
1787	17.860	-228.91678	0.52005	-202.96771	293.73947	60.81852	-81.79952	-147.80992	40.31456	225.58928	235.43994	51.95782	300.28357	17.19843	798.42651	-307.16824	-64.11147	539.30231	-272.05545	91.75977	544.76550	-279.38553	-32.04932	580.03949	610.56274	108.92694	585.35620	606.14142	
1788	17.870	-228.01135	0.48513	-203.33696	297.87695	72.99232	-87.34484	-146.70726	40.26926	225.42998	236.41068	52.18992	300.14868	17.21684	797.78082	-307.63586	-63.90201	538.94342	-272.13992	91.77026	544.39386	-279.47681	-32.46292	580.64075	610.16345	108.41141	585.96631	605.93268	
